<?xml version="1.0" standalone="no"?>
<!DOCTYPE svg PUBLIC "-//W3C//DTD SVG 20010904//EN"
 "http://www.w3.org/TR/2001/REC-SVG-20010904/DTD/svg10.dtd">
<svg version="1.0" xmlns="http://www.w3.org/2000/svg"
 width="500.000000pt" height="500.000000pt" viewBox="0 0 500.000000 500.000000"
 preserveAspectRatio="xMidYMid meet">
<metadata>
Created by potrace 1.11, written by Peter Selinger 2001-2013
</metadata>
<g transform="translate(0.000000,500.000000) scale(0.100000,-0.100000)"
fill="#000000" stroke="none">
<path d="M2329 4996 c-2 -2 -38 -6 -79 -10 -90 -8 -133 -15 -310 -51 -302 -62
-649 -226 -940 -443 -101 -76 -329 -291 -400 -377 -305 -370 -518 -849 -566
-1270 -3 -33 -8 -69 -11 -80 -3 -11 -6 -110 -8 -220 -3 -179 8 -340 30 -460
66 -357 162 -611 343 -905 194 -315 501 -620 817 -813 240 -145 570 -277 785
-313 14 -2 45 -9 70 -14 157 -33 493 -48 673 -30 370 37 644 123 997 313 105
56 271 171 385 267 39 33 263 257 295 296 52 62 118 151 163 219 26 39 51 75
57 82 5 7 10 14 10 17 0 2 19 37 43 78 37 63 68 128 134 276 50 113 126 384
154 552 24 144 33 476 17 640 -48 488 -248 962 -573 1360 -23 27 -270 275
-300 300 -93 78 -269 201 -375 262 -259 149 -622 273 -885 303 -33 4 -69 9
-80 12 -23 5 -441 14 -446 9z"/>
</g>
</svg>
